# xmcd
#
# Track frame offsets:
#	150
#	16582
#	34103
#	49692
#	67209
#	87220
#	111245
#	133033
#	146551
#	163018
#	179099
#	194785
#
# Disc length: 2829 seconds
#
# Revision: 0
# Processed by: cddbd v1.5.2PL0 Copyright (c) Steve Scherf et al.
# Submitted via: audiograbber 1.83.01
#
DISCID=b00b0b0c
DTITLE=Cdpool - Street February 10 CD1
DYEAR=2010
DGENRE=R&B
TTITLE0=Keri Hilson - I Like (Jost and Grubert Radio Mix)
TTITLE1=Black Eyed Peas - Imma Be (Clean Radio Edit)
TTITLE2=50 Cent - Do You Think About Me (Clean Version)
TTITLE3=Amerie Ft Lil' Wayne - Heard 'Em All
TTITLE4=Three 6 Mafia Ft Sean Kingston and Flo Rida  - Feel It (Bird Peterson Rem
TTITLE4=ix)
TTITLE5=Underachiever Ft Jermaine - Never Be Mine (Digital Dubstar Remix)
TTITLE6=Steve Hoang - No Coming Back (Ill Blue Dark Remix)
TTITLE7=Davinche Ft Cleo Sol - Hero (Main Mix)
TTITLE8=Alborosie Ft David Hines - Stepping Up
TTITLE9=DJ Devastate Ft Segerfalk - Some Nights
TTITLE10=Iswhat - Dig (Clean Version)
TTITLE11=Will Vill - Cop Shot (Main Mix)
EXTD=
EXTT0=
EXTT1=
EXTT2=
EXTT3=
EXTT4=
EXTT5=
EXTT6=
EXTT7=
EXTT8=
EXTT9=
EXTT10=
EXTT11=
PLAYORDER=
